<?xml version="1.0" encoding="utf-8"?>
<!-- Generator: Adobe Illustrator 16.0.0, SVG Export Plug-In . SVG Version: 6.00 Build 0)  -->
<!DOCTYPE svg PUBLIC "-//W3C//DTD SVG 1.1//EN" "http://www.w3.org/Graphics/SVG/1.1/DTD/svg11.dtd">
<svg version="1.1" id="Layer_1" xmlns="http://www.w3.org/2000/svg" xmlns:xlink="http://www.w3.org/1999/xlink" x="0px" y="0px"
	 width="655px" height="220px" viewBox="0 0 655 220" enable-background="new 0 0 655 220" xml:space="preserve">
<g>
	<g>
		<path fill="#FFFFFF" d="M191.408,186.773c-2.393,0-4.58-0.898-6.221-2.557c-2.289-2.314-2.289-4.732-2.289-9.947
			c0-5.217,0-7.635,2.289-9.949c1.641-1.656,3.828-2.555,6.221-2.555c4.376,0,7.622,2.695,8.442,7.322h-2.665
			c-0.649-3.004-2.734-4.973-5.777-4.973c-1.605,0-3.145,0.621-4.203,1.727c-1.539,1.59-1.711,3.281-1.711,8.428
			s0.172,6.84,1.711,8.428c1.059,1.105,2.598,1.727,4.203,1.727c3.043,0,5.196-1.969,5.846-4.975h2.597
			C199.065,184.08,195.75,186.773,191.408,186.773"/>
	</g>
	<polygon fill="#FFFFFF" points="210.615,186.566 210.615,161.973 225.723,161.973 225.723,164.322 213.213,164.322 213.213,172.99 
		223.877,172.99 223.877,175.34 213.213,175.34 213.213,184.219 225.723,184.219 225.723,186.566 	"/>
	<polygon fill="#FFFFFF" points="251.664,186.566 238.743,166.842 238.743,186.566 236.146,186.566 236.146,161.973 
		238.606,161.973 251.527,181.627 251.527,161.973 254.125,161.973 254.125,186.566 	"/>
	<polygon fill="#FFFFFF" points="273.331,164.322 273.331,186.566 270.733,186.566 270.733,164.322 263.692,164.322 
		263.692,161.973 280.373,161.973 280.373,164.322 	"/>
	<g>
		<path fill="#FFFFFF" d="M299.032,164.322h-6.493v9.016h6.493c2.836,0,4.854-1.486,4.854-4.492
			C303.886,165.842,301.869,164.322,299.032,164.322 M303.921,186.566l-5.539-10.914h-5.844v10.914h-2.6v-24.594h9.332
			c4.24,0,7.212,2.59,7.212,6.84c0,3.592-2.152,5.941-5.298,6.596l5.777,11.158H303.921z"/>
		<path fill="#FFFFFF" d="M329.178,165.877c-1.061-1.107-2.6-1.762-4.206-1.762s-3.145,0.654-4.203,1.762
			c-1.539,1.588-1.711,3.246-1.711,8.393s0.172,6.805,1.711,8.395c1.059,1.104,2.598,1.76,4.203,1.76s3.145-0.656,4.206-1.76
			c1.537-1.59,1.709-3.248,1.709-8.395S330.715,167.465,329.178,165.877 M331.193,184.217c-1.641,1.658-3.793,2.557-6.221,2.557
			s-4.58-0.898-6.221-2.557c-2.289-2.314-2.289-4.732-2.289-9.947c0-5.217,0-7.635,2.289-9.947c1.641-1.658,3.793-2.557,6.221-2.557
			s4.581,0.898,6.221,2.557c2.291,2.313,2.291,4.73,2.291,9.947C333.484,179.484,333.484,181.902,331.193,184.217"/>
		<path fill="#FFFFFF" d="M366.293,186.773c-4.922,0-8.477-3.42-8.477-8.324v-16.477h2.598v16.27c0,3.73,2.324,6.182,5.879,6.182
			s5.914-2.451,5.914-6.182v-16.27h2.598v16.477C374.805,183.354,371.215,186.773,366.293,186.773"/>
	</g>
	<polygon fill="#FFFFFF" points="402.045,186.566 389.123,166.842 389.123,186.566 386.525,186.566 386.525,161.973 
		388.986,161.973 401.908,181.627 401.908,161.973 404.506,161.973 404.506,186.566 	"/>
	<rect x="416.568" y="161.973" fill="#FFFFFF" width="2.598" height="24.592"/>
	<polygon fill="#FFFFFF" points="438.1,186.566 435.98,186.566 427.982,161.973 430.717,161.973 437.041,181.869 443.363,161.973 
		446.098,161.973 	"/>
	<polygon fill="#FFFFFF" points="454.914,186.566 454.914,161.973 470.021,161.973 470.021,164.322 457.512,164.322 457.512,172.99 
		468.176,172.99 468.176,175.34 457.512,175.34 457.512,184.219 470.021,184.219 470.021,186.566 	"/>
	<g>
		<path fill="#FFFFFF" d="M489.535,164.322h-6.492v9.016h6.492c2.838,0,4.855-1.486,4.855-4.492
			C494.391,165.842,492.373,164.322,489.535,164.322 M494.424,186.566l-5.537-10.914h-5.844v10.914h-2.6v-24.594h9.332
			c4.238,0,7.213,2.59,7.213,6.84c0,3.592-2.154,5.941-5.299,6.596l5.777,11.158H494.424z"/>
		<path fill="#FFFFFF" d="M514.145,186.773c-3.658,0-6.051-0.932-8.342-3.246l1.777-1.797c2.018,2.037,3.898,2.693,6.633,2.693
			c3.555,0,5.742-1.691,5.742-4.559c0-1.279-0.377-2.383-1.162-3.074c-0.787-0.691-1.402-0.898-3.178-1.174l-2.838-0.451
			c-1.914-0.309-3.418-0.932-4.479-1.865c-1.23-1.104-1.846-2.623-1.846-4.592c0-4.18,2.975-6.943,7.793-6.943
			c3.111,0,5.162,0.795,7.246,2.695l-1.674,1.691c-1.504-1.383-3.111-2.107-5.674-2.107c-3.248,0-5.127,1.832-5.127,4.559
			c0,1.211,0.342,2.178,1.094,2.834s2.016,1.141,3.281,1.346l2.666,0.416c2.289,0.346,3.418,0.828,4.443,1.727
			c1.334,1.141,2.051,2.832,2.051,4.871C522.553,184.113,519.203,186.773,514.145,186.773"/>
	</g>
	<rect x="533.01" y="161.973" fill="#FFFFFF" width="2.598" height="24.592"/>
	<polygon fill="#FFFFFF" points="554.814,164.322 554.814,186.566 552.217,186.566 552.217,164.322 545.176,164.322 
		545.176,161.973 561.855,161.973 561.855,164.322 	"/>
	<path fill="#FFFFFF" d="M576.758,159.59h-2.256l3.008-5.285h2.939L576.758,159.59z M576.348,165.738l-4.582,12.986h9.092
		L576.348,165.738z M583.559,186.566l-1.947-5.563H570.98l-1.949,5.563h-2.77l8.957-24.594h2.188l8.922,24.594H583.559z"/>
	<g>
		<path fill="#FFFFFF" d="M604.371,164.322h-6.492v9.016h6.492c2.838,0,4.855-1.486,4.855-4.492
			C609.227,165.842,607.209,164.322,604.371,164.322 M609.26,186.566l-5.537-10.914h-5.844v10.914h-2.6v-24.594h9.332
			c4.238,0,7.213,2.59,7.213,6.84c0,3.592-2.154,5.941-5.299,6.596l5.777,11.158H609.26z"/>
	</g>
	<rect x="622.725" y="161.973" fill="#FFFFFF" width="2.598" height="24.592"/>
	<g>
		<path fill="#FFFFFF" d="M649.18,165.877c-1.061-1.107-2.6-1.762-4.205-1.762s-3.145,0.654-4.203,1.762
			c-1.539,1.588-1.711,3.246-1.711,8.393s0.172,6.805,1.711,8.395c1.059,1.104,2.598,1.76,4.203,1.76s3.145-0.656,4.205-1.76
			c1.537-1.59,1.709-3.248,1.709-8.395S650.717,167.465,649.18,165.877 M651.195,184.217c-1.641,1.658-3.793,2.557-6.221,2.557
			s-4.58-0.898-6.221-2.557c-2.289-2.314-2.289-4.732-2.289-9.947c0-5.217,0-7.635,2.289-9.947c1.641-1.658,3.793-2.557,6.221-2.557
			s4.58,0.898,6.221,2.557c2.289,2.313,2.289,4.73,2.289,9.947C653.484,179.484,653.484,181.902,651.195,184.217"/>
	</g>
	<path fill="#FFFFFF" d="M258.519,114.775l6.293-22.371l6.29,22.371H258.519z M269.595,75.393h-9.569h-5.378l-21.842,66.596h18.06
		l7.147-25.414l3.22,12.277h13.829l3.694,13.137h18.061l-21.843-66.596H269.595z"/>
	<path fill="#FFFFFF" d="M566.072,114.775l6.291-22.371l6.291,22.371H566.072z M577.148,75.393h-9.57h-5.377l-21.844,66.596h18.061
		l7.148-25.414l3.219,12.277h13.83l3.693,13.137h18.061l-21.842-66.596H577.148z"/>
	<g>
		<path fill="#FFFFFF" d="M335.568,121.484c0,2.953-2.393,5.346-5.348,5.346h-8.571c-2.953,0-5.348-2.393-5.348-5.346v-25.57
			c0-2.953,2.395-5.346,5.348-5.346h8.571c2.955,0,5.348,2.393,5.348,5.346V121.484z M335.16,75.412h-18.45
			c-10.039,0-18.179,8.139-18.179,18.18v30.215c0,10.041,8.14,18.18,18.179,18.18h18.45c10.041,0,18.18-8.139,18.18-18.18v-7.424
			V93.592C353.34,83.551,345.201,75.412,335.16,75.412"/>
		<path fill="#FFFFFF" d="M392.891,121.484V75.387h-17.771v48.418c0,10.041,8.139,18.182,18.18,18.182h30.707v-15.154h-25.768
			C395.283,126.832,392.891,124.438,392.891,121.484"/>
		<path fill="#FFFFFF" d="M514.832,90.566h16.402l7.152-15.154h-28.494c-10.041,0-18.18,8.141-18.18,18.18v30.213
			c0,10.041,8.139,18.182,18.18,18.182h26.461v-15.154h-21.521c-2.953,0-5.348-2.395-5.348-5.348v-25.57
			C509.484,92.961,511.879,90.566,514.832,90.566"/>
		<path fill="#FFFFFF" d="M219.24,104.744l-14.253-5.863c-1.708-0.701-2.821-2.365-2.821-4.211c0-2.441,1.979-4.424,4.423-4.424
			h16.874l4.754-14.854h-26.851c-10.183,0-18.439,8.256-18.439,18.439v1.131c0,7.744,4.675,14.721,11.838,17.664l14.253,5.865
			c1.706,0.699,2.821,2.363,2.821,4.209c0,2.443-1.98,4.424-4.423,4.424h-20.219v14.854h25.44c10.184,0,18.44-8.256,18.44-18.439
			v-1.131C231.078,114.664,226.401,107.688,219.24,104.744"/>
		<path fill="#FFFFFF" d="M640.969,104.744l-14.254-5.863c-1.707-0.701-2.82-2.365-2.82-4.211c0-2.441,1.979-4.424,4.422-4.424
			h16.875l4.754-14.854h-26.85c-10.184,0-18.441,8.256-18.441,18.439v1.131c0,7.744,4.676,14.721,11.838,17.664l14.254,5.865
			c1.705,0.699,2.82,2.363,2.82,4.209c0,2.443-1.979,4.424-4.422,4.424h-20.219v14.854h25.441c10.182,0,18.439-8.256,18.439-18.439
			v-1.131C652.807,114.664,648.129,107.688,640.969,104.744"/>
		<path fill="#FFFFFF" d="M258.502,66.785c2.709,0,10.741,4.182,13.642,4.182c3.104,0,5.604-0.951,7.493-2.852
			c1.73-1.742,3.231-3.934,4.522-6.531l-7.853-4.576c-0.068,0.113-1.631,2.508-2.334,2.984c-0.704,0.475-1.466,0.711-2.289,0.711
			c-1.141,0-2.246-0.221-3.319-0.664s-6.87-3.611-10.129-3.611c-3.041,0-5.557,0.889-7.535,2.66
			c-1.878,1.678-3.437,3.711-4.695,6.068l7.801,4.547C255.081,67.762,256.645,66.785,258.502,66.785"/>
		<path fill="#FFFFFF" d="M465.537,126.83h-13.434c-2.951,0-5.346-2.393-5.346-5.348V75.424h-17.773v48.383
			c0,10.039,8.139,18.18,18.18,18.18l36.145,0.004V75.387h-17.771V126.83z"/>
	</g>
	<g>
		<path fill="#FFFFFF" d="M74.041,85.98L117.9,59.568l2.854,1.66L74.065,89.344L74.041,85.98z M73.986,78.193v-1.527l36.039-21.67
			l2.854,1.658L73.998,80.029L73.986,78.193z M73.986,67.313l28.148-16.898l2.857,1.658L73.986,70.684V67.313z M73.986,57.963
			l20.249-12.137l2.856,1.656L73.986,61.334V57.963z M73.986,48.611l12.337-7.383l2.857,1.658l-15.194,9.096V48.611z M73.986,39.264
			l4.413-2.637l2.857,1.658l-7.271,4.344V39.264z M125.892,1.617L73.965,33.416l-0.019-0.008v0.023L1.519,77.787H1.516v0.006
			l0.003,5.592l4.647-2.848l2.82,1.666l-7.468,4.563v5.9l12.383-7.561l2.821,1.664L1.519,96.049v5.896l20.128-12.268l2.823,1.666
			l-22.951,13.99v5.893l27.888-16.969l2.82,1.666L1.519,114.607v5.902l35.659-21.666l2.821,1.666l-38.48,23.389v5.895l43.44-26.355
			l2.824,1.666L1.519,133.176v5.898l51.35-30.969l0.182-0.109h-0.003l21.058-12.701l37.052-22.348l-0.058,0.041l13.635-8.229
			l1.146-0.689l0.01-0.006l0.003-1.01V1.617z"/>
		<polygon fill="#FFFFFF" points="2.01,142.152 6.949,145.068 60.754,112.523 55.757,109.592 		"/>
		<polygon fill="#FFFFFF" points="63.591,114.186 9.774,146.738 14.726,149.66 68.597,117.123 		"/>
		<polygon fill="#FFFFFF" points="71.437,118.785 17.553,151.332 22.516,154.26 76.454,121.729 		"/>
		<path fill="#FFFFFF" d="M69.548,181.963l7.647-4.57v3.367l-4.817,2.875L69.548,181.963z M61.685,177.324l15.511-9.285v3.371
			l-12.675,7.584L61.685,177.324z M53.837,172.689l23.358-14.002v3.373L56.67,174.361L53.837,172.689z M46.001,168.064
			l31.194-18.727v3.367l-28.364,17.031L46.001,168.064z M38.178,163.447l39.018-23.465v3.373l-36.191,21.764L38.178,163.447z
			 M30.363,158.832l46.832-28.199v3.373l-44.003,26.498L30.363,158.832z M112.082,103.615l0.161-0.098l-84.357,50.877l-2.544,1.535
			l-0.006,0.004l-0.013,2.988v59.461h0.006l51.927-31.805l0.021,0.014v-0.023l72.428-44.361l0.003,0.004v-0.414l-0.003-5.182
			l-4.344,2.658l-2.842-1.65l7.183-4.395l0.003-5.896l-12.14,7.412l-2.845-1.652l14.981-9.141l0.003-5.902l-19.948,12.162
			l-2.842-1.654l22.787-13.893l0.003-5.891l-27.766,16.896l-2.845-1.654l30.61-18.629V99.49l-35.599,21.629l-2.845-1.654
			l38.443-23.363v-5.896l-43.44,26.357l-2.848-1.652l46.288-28.086v-5.898L112.082,103.615z"/>
		<polygon fill="#FFFFFF" points="90.466,107.475 95.463,110.404 149.213,77.842 144.271,74.928 		"/>
		<polygon fill="#FFFFFF" points="87.631,105.811 141.448,73.258 136.497,70.338 82.625,102.875 		"/>
		<polygon fill="#FFFFFF" points="79.787,101.211 133.672,68.666 128.708,65.738 74.77,98.27 		"/>
	</g>
</g>
</svg>
