<?xml version="1.0" encoding="utf-8"?>
<!-- Generator: Adobe Illustrator 16.0.0, SVG Export Plug-In . SVG Version: 6.00 Build 0)  -->
<!DOCTYPE svg PUBLIC "-//W3C//DTD SVG 1.1//EN" "http://www.w3.org/Graphics/SVG/1.1/DTD/svg11.dtd">
<svg version="1.1" id="Layer_1" xmlns="http://www.w3.org/2000/svg" xmlns:xlink="http://www.w3.org/1999/xlink" x="0px" y="0px"
	 width="654px" height="220px" viewBox="0 0 654 220" enable-background="new 0 0 654 220" xml:space="preserve">
<g>
	<g>
		<polygon fill="#1E4079" points="24.836,155.934 24.826,158.924 24.826,218.381 24.832,218.383 149.205,142.209 149.207,80.921 		
			"/>
		<polygon fill="#1E4079" points="125.393,1.617 1.02,77.791 1.017,139.078 125.389,64.066 125.393,63.054 		"/>
		<polygon fill="#0096D5" points="53.286,172.723 76.785,158.637 76.786,152.654 48.281,169.768 		"/>
		<polygon fill="#0096D5" points="1.019,83.384 5.687,80.527 1.016,77.789 		"/>
		<polygon fill="#0096D5" points="1.019,123.898 1.019,129.795 44.607,103.347 39.631,100.429 		"/>
		<polygon fill="#0096D5" points="61.134,177.355 76.782,167.99 76.783,162.008 56.118,174.395 		"/>
		<polygon fill="#0096D5" points="1.022,86.767 1.019,92.666 13.448,85.078 8.516,82.185 		"/>
		<polygon fill="#0096D5" points="29.814,158.865 76.791,130.576 76.793,124.6 24.843,155.93 		"/>
		<polygon fill="#0096D5" points="45.451,168.098 76.786,149.285 76.788,143.303 40.458,165.148 		"/>
		<polygon fill="#0096D5" points="1.022,105.335 1.019,111.228 29.003,94.199 24.05,91.294 		"/>
		<polygon fill="#0096D5" points="37.626,163.479 76.789,139.93 76.79,133.951 32.645,160.535 		"/>
		<polygon fill="#0096D5" points="1.022,96.048 1.019,101.947 21.219,89.634 16.277,86.736 		"/>
		<polygon fill="#0096D5" points="1.019,114.611 1.019,120.51 36.799,98.769 31.835,95.859 		"/>
		<polygon fill="#0096D5" points="1.511,142.154 6.451,145.072 60.257,112.523 55.26,109.593 		"/>
		<polygon fill="#0096D5" points="14.227,149.662 68.1,117.123 63.093,114.188 9.277,146.74 		"/>
		<polygon fill="#0096D5" points="1.02,133.176 1.019,139.074 52.55,107.998 47.439,105.007 		"/>
		<polygon fill="#0096D5" points="68.994,181.996 76.781,177.344 76.781,171.359 63.967,179.029 		"/>
		<polygon fill="#0096D5" points="76.778,186.592 76.78,180.709 71.827,183.67 		"/>
		<polygon fill="#0096D5" points="22.016,154.26 75.957,121.729 70.937,118.787 17.055,151.332 		"/>
		<polygon fill="#0096D5" points="96.938,47.277 73.44,61.363 73.438,67.345 101.943,50.232 		"/>
		<polygon fill="#0096D5" points="149.209,142.211 149.206,136.615 144.537,139.473 		"/>
		<polygon fill="#0096D5" points="149.206,90.205 105.618,116.652 110.595,119.57 149.206,96.101 		"/>
		<polygon fill="#0096D5" points="89.091,42.644 73.442,52.009 73.441,57.992 94.106,45.605 		"/>
		<polygon fill="#0096D5" points="149.202,133.232 149.205,127.332 136.777,134.922 141.709,137.813 		"/>
		<polygon fill="#0096D5" points="120.41,61.134 73.434,89.423 73.432,95.4 125.382,64.07 		"/>
		<polygon fill="#0096D5" points="104.773,51.902 73.438,70.714 73.437,76.697 109.767,54.851 		"/>
		<polygon fill="#0096D5" points="149.206,108.771 121.223,125.801 126.174,128.705 149.203,114.664 		"/>
		<polygon fill="#0096D5" points="112.599,56.521 73.437,80.07 73.435,86.048 117.58,59.462 		"/>
		<polygon fill="#0096D5" points="149.206,118.053 129.007,130.365 133.948,133.264 149.203,123.951 		"/>
		<polygon fill="#0096D5" points="149.206,99.49 113.425,121.229 118.391,124.141 149.206,105.388 		"/>
		<polygon fill="#0096D5" points="143.773,74.927 89.968,107.474 94.966,110.404 148.714,77.843 		"/>
		<polygon fill="#0096D5" points="135.998,70.337 82.125,102.876 87.132,105.812 140.947,73.259 		"/>
		<polygon fill="#0096D5" points="149.206,80.923 97.68,112.002 102.784,114.99 149.204,86.824 		"/>
		<polygon fill="#0096D5" points="81.23,38.003 73.443,42.658 73.443,48.64 86.258,40.97 		"/>
		<polygon fill="#0096D5" points="73.446,33.408 73.444,39.291 78.397,36.33 		"/>
		<polygon fill="#0096D5" points="128.209,65.74 74.269,98.269 79.288,101.212 133.17,68.667 		"/>
	</g>
	<g>
		<g>
			<path fill="#1E4079" d="M190.908,186.775c-2.393,0-4.58-0.898-6.222-2.557c-2.289-2.314-2.289-4.732-2.289-9.947
				c0-5.217,0-7.635,2.289-9.949c1.642-1.658,3.829-2.557,6.222-2.557c4.375,0,7.621,2.695,8.442,7.324h-2.665
				c-0.65-3.006-2.734-4.975-5.777-4.975c-1.606,0-3.145,0.623-4.204,1.729c-1.538,1.588-1.71,3.281-1.71,8.428
				s0.172,6.838,1.71,8.428c1.06,1.105,2.598,1.727,4.204,1.727c3.043,0,5.195-1.969,5.846-4.975h2.597
				C198.564,184.08,195.25,186.775,190.908,186.775"/>
		</g>
		<polygon fill="#1E4079" points="210.114,186.566 210.114,161.975 225.223,161.975 225.223,164.322 212.712,164.322 
			212.712,172.992 223.377,172.992 223.377,175.342 212.712,175.342 212.712,184.219 225.223,184.219 225.223,186.566 		"/>
		<polygon fill="#1E4079" points="251.163,186.566 238.243,166.844 238.243,186.566 235.645,186.566 235.645,161.975 
			238.106,161.975 251.026,181.629 251.026,161.975 253.624,161.975 253.624,186.566 		"/>
		<polygon fill="#1E4079" points="272.831,164.322 272.831,186.566 270.233,186.566 270.233,164.322 263.191,164.322 
			263.191,161.975 279.872,161.975 279.872,164.322 		"/>
		<g>
			<path fill="#1E4079" d="M298.531,164.322h-6.493v9.016h6.493c2.837,0,4.855-1.486,4.855-4.49
				C303.386,165.842,301.369,164.322,298.531,164.322 M303.419,186.566l-5.537-10.914h-5.845v10.914h-2.599v-24.592h9.332
				c4.238,0,7.21,2.59,7.21,6.84c0,3.59-2.152,5.939-5.296,6.596l5.777,11.156H303.419z"/>
			<path fill="#1E4079" d="M328.678,165.877c-1.061-1.105-2.6-1.762-4.206-1.762s-3.145,0.656-4.203,1.762
				c-1.539,1.588-1.711,3.248-1.711,8.395s0.172,6.805,1.711,8.393c1.059,1.105,2.598,1.762,4.203,1.762s3.145-0.656,4.206-1.762
				c1.537-1.588,1.709-3.246,1.709-8.393S330.215,167.465,328.678,165.877 M330.693,184.219c-1.641,1.658-3.793,2.557-6.221,2.557
				s-4.58-0.898-6.221-2.557c-2.289-2.314-2.289-4.732-2.289-9.947c0-5.217,0-7.635,2.289-9.947c1.641-1.66,3.793-2.559,6.221-2.559
				s4.581,0.898,6.221,2.559c2.289,2.313,2.289,4.73,2.289,9.947C332.982,179.486,332.982,181.904,330.693,184.219"/>
			<path fill="#1E4079" d="M365.793,186.775c-4.922,0-8.477-3.42-8.477-8.326v-16.475h2.598v16.268c0,3.732,2.324,6.184,5.879,6.184
				s5.914-2.451,5.914-6.184v-16.268h2.596v16.475C374.303,183.355,370.715,186.775,365.793,186.775"/>
		</g>
		<polygon fill="#1E4079" points="401.543,186.566 388.623,166.844 388.623,186.566 386.025,186.566 386.025,161.975 
			388.486,161.975 401.406,181.629 401.406,161.975 404.004,161.975 404.004,186.566 		"/>
		<rect x="416.066" y="161.973" fill="#1E4079" width="2.598" height="24.594"/>
		<polygon fill="#1E4079" points="437.6,186.566 435.48,186.566 427.482,161.975 430.217,161.975 436.541,181.869 442.863,161.975 
			445.598,161.975 		"/>
		<polygon fill="#1E4079" points="454.414,186.566 454.414,161.975 469.521,161.975 469.521,164.322 457.012,164.322 
			457.012,172.992 467.676,172.992 467.676,175.342 457.012,175.342 457.012,184.219 469.521,184.219 469.521,186.566 		"/>
		<g>
			<path fill="#1E4079" d="M489.035,164.322h-6.492v9.016h6.492c2.838,0,4.855-1.486,4.855-4.49
				C493.891,165.842,491.873,164.322,489.035,164.322 M493.924,186.566l-5.537-10.914h-5.844v10.914h-2.6v-24.592h9.332
				c4.238,0,7.211,2.59,7.211,6.84c0,3.59-2.152,5.939-5.297,6.596l5.777,11.156H493.924z"/>
			<path fill="#1E4079" d="M513.643,186.775c-3.658,0-6.049-0.934-8.34-3.248l1.777-1.797c2.016,2.039,3.896,2.695,6.631,2.695
				c3.555,0,5.744-1.693,5.744-4.561c0-1.277-0.377-2.383-1.162-3.072c-0.787-0.691-1.402-0.898-3.18-1.176l-2.838-0.449
				c-1.914-0.309-3.418-0.932-4.479-1.865c-1.23-1.105-1.846-2.625-1.846-4.592c0-4.182,2.975-6.945,7.795-6.945
				c3.109,0,5.162,0.795,7.246,2.695l-1.674,1.693c-1.506-1.383-3.111-2.107-5.676-2.107c-3.246,0-5.127,1.83-5.127,4.559
				c0,1.209,0.342,2.176,1.094,2.834c0.752,0.654,2.018,1.139,3.281,1.346l2.666,0.414c2.291,0.346,3.42,0.828,4.445,1.729
				c1.332,1.139,2.051,2.832,2.051,4.869C522.053,184.115,518.703,186.775,513.643,186.775"/>
		</g>
		<rect x="532.508" y="161.973" fill="#1E4079" width="2.6" height="24.594"/>
		<polygon fill="#1E4079" points="554.314,164.322 554.314,186.566 551.717,186.566 551.717,164.322 544.676,164.322 
			544.676,161.975 561.355,161.975 561.355,164.322 		"/>
		<path fill="#1E4079" d="M576.256,159.59H574l3.008-5.285h2.939L576.256,159.59z M575.846,165.738l-4.58,12.988h9.092
			L575.846,165.738z M583.059,186.566l-1.949-5.561h-10.631l-1.947,5.561h-2.77l8.955-24.592h2.189l8.922,24.592H583.059z"/>
		<g>
			<path fill="#1E4079" d="M603.871,164.322h-6.494v9.016h6.494c2.838,0,4.855-1.486,4.855-4.49
				C608.727,165.842,606.709,164.322,603.871,164.322 M608.76,186.566l-5.537-10.914h-5.846v10.914h-2.598v-24.592h9.332
				c4.238,0,7.211,2.59,7.211,6.84c0,3.59-2.152,5.939-5.297,6.596l5.777,11.156H608.76z"/>
		</g>
		<rect x="622.223" y="161.973" fill="#1E4079" width="2.598" height="24.594"/>
		<g>
			<path fill="#1E4079" d="M648.68,165.877c-1.061-1.105-2.6-1.762-4.205-1.762c-1.607,0-3.146,0.656-4.205,1.762
				c-1.539,1.588-1.709,3.248-1.709,8.395s0.17,6.805,1.709,8.393c1.059,1.105,2.598,1.762,4.205,1.762
				c1.605,0,3.145-0.656,4.205-1.762c1.537-1.588,1.709-3.246,1.709-8.393S650.217,167.465,648.68,165.877 M650.695,184.219
				c-1.641,1.658-3.795,2.557-6.221,2.557c-2.428,0-4.582-0.898-6.223-2.557c-2.289-2.314-2.289-4.732-2.289-9.947
				c0-5.217,0-7.635,2.289-9.947c1.641-1.66,3.795-2.559,6.223-2.559c2.426,0,4.58,0.898,6.221,2.559
				c2.289,2.313,2.289,4.73,2.289,9.947C652.984,179.486,652.984,181.904,650.695,184.219"/>
		</g>
		<path fill="#0096D5" d="M258.019,114.777l6.292-22.372l6.291,22.372H258.019z M269.095,75.392h-9.569h-5.379l-21.841,66.598
			h18.059l7.147-25.416l3.221,12.279h13.828l3.694,13.137h18.061l-21.843-66.598H269.095z"/>
		<path fill="#0096D5" d="M565.572,114.777l6.291-22.372l6.291,22.372H565.572z M576.648,75.392h-9.57h-5.379l-21.842,66.598h18.061
			l7.146-25.416l3.221,12.279h13.828l3.695,13.137h18.061l-21.844-66.598H576.648z"/>
		<g>
			<path fill="#0096D5" d="M335.068,121.484c0,2.953-2.395,5.348-5.348,5.348h-8.571c-2.953,0-5.348-2.395-5.348-5.348V95.914
				c0-2.953,2.395-5.346,5.348-5.346h8.571c2.953,0,5.348,2.393,5.348,5.346V121.484z M334.66,75.412h-18.45
				c-10.039,0-18.179,8.141-18.179,18.182v30.213c0,10.041,8.14,18.18,18.179,18.18h18.45c10.041,0,18.18-8.139,18.18-18.18v-7.424
				v-22.79C352.84,83.552,344.701,75.412,334.66,75.412"/>
			<path fill="#0096D5" d="M392.391,121.484V75.386h-17.773v48.42c0,10.041,8.141,18.18,18.182,18.18h30.705v-15.154h-25.768
				C394.783,126.832,392.391,124.438,392.391,121.484"/>
			<path fill="#0096D5" d="M514.332,90.568h16.4l7.154-15.156h-28.494c-10.041,0-18.18,8.141-18.18,18.18v30.215
				c0,10.041,8.139,18.18,18.18,18.18h26.461v-15.154h-21.521c-2.953,0-5.348-2.395-5.348-5.348V95.916
				C508.984,92.962,511.379,90.568,514.332,90.568"/>
			<path fill="#0096D5" d="M218.739,104.744l-14.253-5.863c-1.708-0.701-2.821-2.363-2.821-4.209c0-2.443,1.98-4.424,4.423-4.424
				h16.875l4.753-14.855h-26.85c-10.184,0-18.44,8.258-18.44,18.439v1.133c0,7.742,4.676,14.721,11.838,17.665l14.253,5.863
				c1.707,0.701,2.821,2.363,2.821,4.209c0,2.443-1.979,4.424-4.423,4.424h-20.219v14.855h25.441
				c10.183,0,18.439-8.258,18.439-18.439v-1.133C230.577,114.666,225.9,107.687,218.739,104.744"/>
			<path fill="#0096D5" d="M640.467,104.744l-14.252-5.863c-1.709-0.701-2.822-2.363-2.822-4.209c0-2.443,1.98-4.424,4.424-4.424
				h16.873l4.754-14.855h-26.85c-10.184,0-18.439,8.258-18.439,18.439v1.133c0,7.742,4.676,14.721,11.838,17.665l14.252,5.863
				c1.707,0.701,2.822,2.363,2.822,4.209c0,2.443-1.98,4.424-4.424,4.424h-20.219v14.855h25.441
				c10.184,0,18.439-8.258,18.439-18.439v-1.133C652.305,114.666,647.629,107.687,640.467,104.744"/>
			<path fill="#0096D5" d="M258.001,66.787c2.71,0,10.741,4.18,13.643,4.18c3.104,0,5.603-0.951,7.493-2.852
				c1.729-1.742,3.231-3.932,4.521-6.531l-7.852-4.576c-0.068,0.115-1.631,2.508-2.334,2.984c-0.705,0.475-1.467,0.711-2.29,0.711
				c-1.14,0-2.246-0.221-3.319-0.664c-1.072-0.441-6.869-3.609-10.129-3.609c-3.041,0-5.557,0.887-7.535,2.66
				c-1.878,1.676-3.436,3.709-4.694,6.066l7.801,4.547C254.58,67.763,256.145,66.787,258.001,66.787"/>
			<path fill="#0096D5" d="M465.037,126.832h-13.434c-2.953,0-5.346-2.395-5.346-5.348V75.423h-17.773v48.383
				c0,10.039,8.139,18.182,18.18,18.182l36.145,0.004V75.388h-17.771V126.832z"/>
		</g>
	</g>
</g>
</svg>
