<?xml version="1.0" standalone="no"?>
<!DOCTYPE svg PUBLIC "-//W3C//DTD SVG 20010904//EN"
 "http://www.w3.org/TR/2001/REC-SVG-20010904/DTD/svg10.dtd">
<svg version="1.0" xmlns="http://www.w3.org/2000/svg"
 width="860.000000pt" height="860.000000pt" viewBox="0 0 860.000000 860.000000"
 preserveAspectRatio="xMidYMid meet">
<metadata>
Created by potrace 1.11, written by Peter Selinger 2001-2013
</metadata>
<g transform="translate(0.000000,860.000000) scale(0.100000,-0.100000)"
fill="#000000" stroke="none">
<path d="M6204 8530 c-6 -6 -24 -18 -41 -28 -37 -21 -235 -141 -271 -164 -15
-10 -36 -22 -47 -28 -11 -6 -33 -19 -50 -30 -16 -11 -41 -25 -55 -32 -14 -7
-27 -15 -30 -18 -11 -12 -191 -120 -200 -120 -6 0 -10 -4 -10 -10 0 -5 -4 -10
-9 -10 -5 0 -64 -34 -131 -75 -67 -41 -126 -75 -130 -75 -5 0 -10 -3 -12 -7
-4 -10 -206 -133 -217 -133 -4 0 -16 -9 -26 -20 -10 -11 -22 -20 -27 -20 -5 0
-80 -43 -166 -96 -86 -53 -202 -124 -257 -158 -55 -33 -101 -60 -103 -58 -1 1
-12 -7 -24 -18 -12 -11 -28 -20 -35 -20 -7 0 -13 -4 -13 -10 0 -5 -5 -10 -11
-10 -6 0 -34 -15 -62 -33 -108 -69 -137 -87 -141 -87 -2 0 -46 -26 -97 -59
-52 -32 -110 -68 -129 -79 -31 -17 -152 -91 -745 -453 -88 -54 -164 -97 -169
-97 -5 0 -12 -5 -15 -10 -5 -8 -87 -61 -182 -116 -20 -12 -112 -67 -205 -124
-93 -57 -178 -108 -189 -115 -11 -7 -39 -24 -62 -39 -23 -16 -44 -28 -48 -28
-4 0 -26 -13 -50 -30 -24 -16 -46 -30 -49 -30 -3 0 -24 -13 -48 -29 -24 -16
-59 -38 -78 -49 -98 -55 -655 -397 -658 -404 -2 -4 -10 -8 -17 -8 -8 0 -17 -5
-20 -10 -4 -6 -7 -554 -7 -1217 l0 -1207 24 -18 c12 -10 35 -23 50 -30 16 -7
28 -16 28 -20 0 -3 6 -8 13 -10 6 -2 112 -66 235 -143 122 -77 237 -148 254
-159 18 -10 43 -27 57 -37 13 -10 30 -19 37 -19 7 0 17 -6 21 -13 4 -7 19 -18
33 -25 14 -7 52 -30 85 -52 33 -22 67 -43 76 -47 8 -5 36 -21 62 -38 l47 -30
0 -1237 0 -1237 132 82 c172 108 379 236 398 248 8 5 43 26 77 46 34 21 133
82 220 136 87 54 165 102 173 107 8 5 59 37 112 70 54 33 102 60 108 60 5 0
10 4 10 9 0 5 8 12 19 16 10 3 29 14 41 25 12 11 26 17 30 15 5 -3 10 -2 12 3
1 4 64 45 138 91 74 46 146 91 160 100 14 9 62 39 108 67 94 56 82 49 422 259
140 87 271 167 290 179 19 11 37 24 38 28 2 4 8 8 13 8 12 0 113 62 117 72 2
4 8 8 13 8 8 0 158 89 169 100 3 3 70 45 150 93 80 49 192 117 249 153 57 35
105 64 107 64 2 0 20 11 41 25 58 39 65 43 113 73 25 16 52 31 60 35 21 9 412
254 427 267 7 5 14 10 17 10 5 0 71 40 116 70 8 5 83 51 165 101 83 50 173
106 200 124 45 29 166 103 213 130 9 6 30 19 45 29 32 22 80 50 115 68 19 10
22 19 22 72 3 308 1 2368 -2 2369 -2 1 -17 12 -35 25 -18 12 -37 22 -43 22 -5
0 -10 5 -10 10 0 6 -4 10 -9 10 -5 0 -49 25 -98 56 -48 30 -97 61 -108 67 -11
7 -46 29 -78 50 -32 20 -63 37 -68 37 -5 0 -9 5 -9 10 0 6 -4 10 -9 10 -5 0
-51 27 -102 60 -52 33 -101 63 -109 67 -8 4 -52 31 -97 60 -46 29 -85 53 -87
53 -3 0 -33 19 -68 43 l-62 43 0 1227 c0 875 -3 1227 -11 1227 -6 0 -16 -5
-21 -10z m-1879 -3704 c28 -17 59 -37 70 -43 47 -29 388 -240 413 -255 15 -10
34 -21 42 -25 8 -4 35 -21 60 -37 43 -29 59 -39 113 -68 12 -7 24 -15 27 -18
12 -12 112 -70 121 -70 5 0 9 -3 9 -8 0 -4 14 -13 30 -20 17 -8 30 -17 30 -20
0 -7 -410 -262 -467 -291 -16 -8 -30 -17 -33 -21 -3 -3 -12 -9 -20 -13 -8 -4
-32 -17 -52 -29 -230 -142 -293 -178 -296 -166 -2 11 -175 125 -206 137 -6 2
-18 9 -26 16 -8 7 -31 22 -50 33 -30 16 -324 196 -608 371 -46 28 -88 51 -93
51 -26 0 1 23 89 76 53 32 106 64 117 70 11 6 39 22 62 37 24 15 47 27 53 27
5 0 10 4 10 9 0 5 6 11 13 13 10 2 180 103 365 216 20 12 44 25 52 29 8 4 30
17 49 30 37 25 36 25 126 -31z"/>
</g>
</svg>
